<svg width="94" height="42" viewBox="0 0 94 42" fill="none" xmlns="http://www.w3.org/2000/svg">
<circle cx="21" cy="21" r="20.5" stroke="#276478"/>
<path d="M73 12.25C73.4142 12.25 73.75 12.5858 73.75 13C73.75 13.4142 73.4142 13.75 73 13.75C68.9959 13.75 65.75 16.9959 65.75 21C65.75 25.0041 68.9959 28.25 73 28.25C73.4142 28.25 73.75 28.5858 73.75 29C73.75 29.4142 73.4142 29.75 73 29.75C68.1675 29.75 64.25 25.8325 64.25 21C64.25 16.1675 68.1675 12.25 73 12.25Z" fill="#F4F6F6"/>
<path d="M77.4697 18.5303C77.1768 18.2374 77.1768 17.7626 77.4697 17.4697C77.7626 17.1768 78.2374 17.1768 78.5303 17.4697L81.5303 20.4697C81.8232 20.7626 81.8232 21.2374 81.5303 21.5303L78.5303 24.5303C78.2374 24.8232 77.7626 24.8232 77.4697 24.5303C77.1768 24.2374 77.1768 23.7626 77.4697 23.4697L79.1893 21.75H71C70.5858 21.75 70.25 21.4142 70.25 21C70.25 20.5858 70.5858 20.25 71 20.25H79.1893L77.4697 18.5303Z" fill="#F4F6F6"/>
<circle cx="73" cy="21" r="20.5" stroke="#276478"/>
</svg>
