<svg width="88" height="64" viewBox="0 0 88 64" fill="none" xmlns="http://www.w3.org/2000/svg">
<path d="M12.6059 52.7701C14.4336 53.8232 15.3459 55.4133 15.3459 57.5372C15.3459 59.3062 14.7211 60.7554 13.4684 61.8878C12.2157 63.0202 10.6785 63.5864 8.85087 63.5864H0.00012207V42.7283H8.22308C9.99205 42.7283 11.4911 43.2857 12.7233 44.3975C13.9554 45.5093 14.5714 46.9116 14.5714 48.5985C14.5714 50.2853 13.9172 51.7169 12.6059 52.7701ZM8.22601 46.5713H4.11307V51.1595H8.22601C8.86261 51.1595 9.39359 50.9424 9.81897 50.5053C10.2473 50.0682 10.4585 49.5226 10.4585 48.8654C10.4585 48.2083 10.2502 47.6626 9.83364 47.2255C9.41706 46.7884 8.88021 46.5713 8.22308 46.5713H8.22601ZM4.11307 59.7433H8.85087C9.54614 59.7433 10.1211 59.5086 10.5788 59.0422C11.0364 58.5757 11.2652 57.9831 11.2652 57.2703C11.2652 56.5574 11.0364 55.9941 10.5788 55.5277C10.1211 55.0612 9.54614 54.8265 8.85087 54.8265H4.11307V59.7433Z" fill="#F4F6F6"/>
<path d="M21.6945 63.5863H17.8514V41.8335H21.6945V63.5863Z" fill="#F4F6F6"/>
<path d="M35.0421 56.7305V48.6836H38.8851V63.5835H35.0421V61.9143C34.1268 63.3048 32.6482 64.0001 30.6035 64.0001C28.9753 64.0001 27.6229 63.4544 26.5522 62.3602C25.499 61.2483 24.9739 59.7375 24.9739 57.8306V48.6836H28.8169V57.3554C28.8169 58.3294 29.081 59.0833 29.6061 59.6202C30.1312 60.157 30.8529 60.424 31.7652 60.424C32.7773 60.424 33.5782 60.1101 34.1649 59.4852C34.7517 58.8603 35.045 57.9421 35.045 56.7276L35.0421 56.7305Z" fill="#F4F6F6"/>
<path d="M49.6136 63.9119C47.7068 63.9119 46.0786 63.469 44.7262 62.5859C43.3738 61.7029 42.4615 60.506 41.9862 58.9952L43.3562 58.1914C43.7346 59.5027 44.4593 60.5295 45.53 61.2746C46.6037 62.0198 47.9649 62.3923 49.6136 62.3923C51.2623 62.3923 52.5473 62.0139 53.4714 61.2599C54.3954 60.506 54.856 59.491 54.856 58.2207C54.856 57.0883 54.4189 56.2053 53.5447 55.5687C52.7115 54.9732 51.3503 54.3659 49.464 53.7499L47.9737 53.2717L46.6624 52.7642C46.0463 52.506 45.621 52.2977 45.3804 52.1393C44.427 51.5438 43.8109 51.0069 43.5322 50.5317C43.0746 49.7367 42.8458 48.8918 42.8458 47.9999C42.8458 46.3131 43.4413 44.9607 44.6323 43.9486C45.8439 42.916 47.3547 42.3997 49.1619 42.3997C50.7519 42.3997 52.1278 42.7986 53.2895 43.5907C54.4512 44.3857 55.3107 45.4477 55.8652 46.7796L54.5245 47.5247C53.5506 45.1221 51.764 43.9193 49.1619 43.9193C47.7508 43.9193 46.6155 44.2918 45.75 45.037C44.8846 45.7821 44.4534 46.7502 44.4534 47.9413C44.4534 49.1323 44.8494 49.9185 45.6444 50.473C46.4395 51.0304 47.739 51.6054 49.5491 52.2009C50.7225 52.5999 51.6144 52.9255 52.2304 53.1837C52.9052 53.4624 53.6004 53.8291 54.3162 54.2867C55.7478 55.1609 56.4607 56.4605 56.4607 58.1914C56.4607 59.9222 55.8359 61.3098 54.5832 62.363C53.3511 63.3956 51.6936 63.9119 49.6078 63.9119H49.6136Z" fill="#F4F6F6"/>
<path d="M61.5329 63.5864H60.0426V48.6865H61.5329V63.5864Z" fill="#F4F6F6"/>
<path d="M82.0331 48.3579C83.6818 48.3579 84.999 48.8684 85.9817 49.8922C86.9645 50.916 87.4574 52.33 87.4574 54.1372V63.5834H85.9671V54.1372C85.9671 52.7671 85.6092 51.6993 84.8934 50.9336C84.1776 50.168 83.2153 49.7866 82.0037 49.7866C80.6337 49.7866 79.5454 50.253 78.7416 51.1859C77.9377 52.1188 77.5358 53.48 77.5358 55.2695V63.5834H76.0456V54.1372C76.0456 52.7671 75.7082 51.6993 75.0335 50.9336C74.3587 50.168 73.4258 49.7866 72.2318 49.7866C70.8618 49.7866 69.7471 50.2648 68.8934 51.2182C68.0397 52.1716 67.6114 53.524 67.6114 55.2695V63.5834H66.1211V48.6835H67.6114V51.2475C68.644 49.3201 70.2428 48.3579 72.4079 48.3579C73.4992 48.3579 74.4526 48.6219 75.2681 49.1471C76.0837 49.6751 76.6792 50.4232 77.0547 51.3971C77.571 50.4056 78.2663 49.6487 79.1405 49.1324C80.0147 48.6161 80.977 48.3579 82.0301 48.3579H82.0331Z" fill="#F4F6F6"/>
<path d="M54.5185 27.6818C53.6677 28.8083 52.7583 29.8908 51.7756 30.9205C51.2064 31.5219 50.6138 32.1028 50.0007 32.669C47.9882 34.5289 45.7528 36.1776 43.3238 37.5828C40.6336 36.028 38.1841 34.1739 36.0073 32.0676C37.6619 31.4163 39.4103 30.6389 41.194 29.753C41.6897 30.1578 42.3175 30.4013 43.0069 30.4013C44.5882 30.4013 45.8702 29.1193 45.8702 27.5381C45.8702 25.9568 44.5882 24.6778 43.0069 24.6778C41.4257 24.6778 40.1437 25.9568 40.1437 27.5381C40.1437 27.6349 40.1496 27.7258 40.1584 27.8168C38.1342 28.823 36.1716 29.6767 34.3469 30.3514C32.8801 28.7467 31.5629 27.0247 30.4012 25.197C30.1137 24.7482 29.8408 24.2935 29.5709 23.827C29.4653 23.6451 29.3656 23.4603 29.26 23.2755C28.6644 22.2018 28.1188 21.1017 27.6318 19.9722C26.9395 18.3764 26.3615 16.7365 25.8951 15.0496C25.8335 14.8267 25.7719 14.6037 25.7162 14.3778C25.678 14.2282 25.6399 14.0786 25.6047 13.926C25.5636 13.7559 25.5225 13.5828 25.4815 13.4127C25.4345 13.2073 25.3905 13.0019 25.3465 12.7937C25.2937 12.5414 25.2438 12.2861 25.1969 12.0339C25.282 12.0045 25.3788 11.981 25.4903 11.9605C25.5167 11.9546 25.5401 11.9517 25.5665 11.9458C25.6135 11.937 25.6633 11.9282 25.7162 11.9224C27.1331 11.7376 28.5266 12.0925 29.8936 12.4182C31.4455 12.7878 32.9886 13.2425 34.4642 13.8468C36.0366 14.4512 37.5797 15.1318 39.0994 15.8622C39.9648 16.2788 40.8185 16.713 41.6663 17.1618C44.5031 18.6638 47.2578 20.3536 49.8628 22.2311C50.2149 22.4834 50.561 22.7357 50.8955 22.9909C51.4001 23.3694 51.887 23.7478 52.3505 24.1263C52.3153 24.2465 52.2919 24.3697 52.2743 24.4959C52.2567 24.622 52.2479 24.7482 52.2479 24.8802C52.2479 24.9447 52.2479 25.0093 52.2537 25.0738C52.2537 25.1296 52.2625 25.1882 52.2713 25.244C52.2772 25.3026 52.2889 25.3613 52.3007 25.42C52.3065 25.464 52.3183 25.508 52.33 25.5491C52.3388 25.5931 52.3505 25.6341 52.3623 25.6752C52.3623 25.6811 52.3623 25.684 52.3681 25.6869C52.374 25.7045 52.3769 25.7251 52.3857 25.7456C52.4063 25.8102 52.4298 25.8776 52.4562 25.9392C52.465 25.9656 52.4767 25.992 52.4884 26.0155C52.506 26.0566 52.5236 26.1006 52.5471 26.1417C52.553 26.1593 52.5647 26.1739 52.5735 26.1945C52.6175 26.2825 52.6703 26.3705 52.726 26.4556C52.7348 26.4702 52.7437 26.4849 52.7554 26.4996C52.7759 26.5318 52.7994 26.5641 52.8258 26.5993C52.8258 26.6052 52.8317 26.6052 52.8346 26.611C52.8991 26.699 52.9695 26.7812 53.0487 26.8604C53.125 26.9396 53.2072 27.0159 53.2893 27.0863C53.3304 27.1215 53.3744 27.1567 53.4184 27.186C53.4829 27.233 53.5504 27.277 53.6179 27.321C53.7528 27.4031 53.8966 27.4765 54.0491 27.5381C54.0873 27.5527 54.1254 27.5674 54.1635 27.5791C54.2398 27.6055 54.319 27.629 54.3982 27.6495C54.4099 27.6495 54.4217 27.6554 54.4393 27.6613C54.4657 27.6613 54.4921 27.6701 54.5156 27.6789L54.5185 27.6818Z" fill="#6DADC2"/>
<path d="M50.2325 11.8753C50.2325 11.9692 50.2384 12.0631 50.2442 12.1569C50.3205 12.9344 50.7078 13.6208 51.2798 14.0902C51.7727 14.495 52.4034 14.7385 53.0957 14.7385C54.6681 14.7385 55.9443 13.4683 55.956 11.8988C58.7547 11.0216 60.5911 10.8192 61.6502 10.9072C61.436 12.2743 61.1485 13.6208 60.7848 14.9439C59.8372 16.0088 58.5024 17.282 56.6571 18.7664L58.0301 20.4767C58.4261 20.1569 58.828 19.8225 59.227 19.4822C58.699 20.7554 58.1005 21.9963 57.4346 23.1991C56.9153 22.4804 56.0704 22.0169 55.117 22.0169C54.6007 22.0169 54.1166 22.1518 53.6971 22.3924C51.1214 20.3124 47.9736 18.1944 44.5413 16.2494C39.7507 13.5299 34.9571 11.4587 31.0437 10.4114C28.3623 9.69564 26.2882 9.50788 24.8449 9.85112C24.6395 8.26696 24.5339 6.6564 24.5339 5.0341C36.1628 -1.67803 50.4848 -1.67803 62.1108 5.0341C62.1108 6.27796 62.0492 7.51302 61.9289 8.73634C60.0396 8.54272 57.5343 9.08837 55.1287 9.85992C54.6124 9.3348 53.8937 9.0121 53.0987 9.0121C51.5174 9.0121 50.2354 10.2912 50.2354 11.8724L50.2325 11.8753Z" fill="#6DADC2"/>
<path d="M34.3441 30.3485C24.3111 33.7544 30.1871 25.4875 30.3925 25.2C30.3954 25.197 30.3984 25.1941 30.3984 25.1941C31.5571 27.0188 32.8743 28.7438 34.3441 30.3485Z" fill="#6DADC2"/>
<path d="M60.7817 14.9439C61.1455 13.6179 61.4359 12.2743 61.6472 10.9072C62.2984 10.96 62.6534 11.1214 62.759 11.3003C62.9761 11.6758 62.5918 12.9138 60.7817 14.9439Z" fill="#6DADC2"/>
<path d="M60.7818 14.9468C60.3593 16.4957 59.8372 18.0095 59.2211 19.4851C58.8221 19.8254 58.4202 20.1598 58.0242 20.4796L56.6512 18.7693C58.4965 17.2849 59.8342 16.0087 60.7789 14.9497L60.7818 14.9468Z" fill="#6DADC2"/>
<path d="M25.8923 15.0465C25.7251 14.8294 25.5813 14.627 25.4522 14.4363C25.4112 14.3806 25.376 14.3249 25.3408 14.2662C25.3056 14.2104 25.2733 14.1547 25.241 14.1048C25.2351 14.096 25.2322 14.0902 25.2293 14.0843C25.1677 13.9846 25.1178 13.8907 25.0679 13.8027C25.0415 13.7528 25.0181 13.7059 24.9946 13.6619C24.9477 13.5709 24.9066 13.4858 24.8714 13.4008C24.8538 13.3597 24.8362 13.3216 24.8186 13.2805C24.8039 13.2423 24.7892 13.2042 24.7775 13.169C24.7658 13.1367 24.754 13.1015 24.7452 13.0693C24.7335 13.0341 24.7247 12.9989 24.7159 12.9666C24.71 12.9402 24.7042 12.9167 24.6983 12.8932C24.6983 12.8874 24.6924 12.8815 24.6924 12.8756C24.6866 12.8463 24.6778 12.8199 24.6748 12.7906C24.6719 12.7612 24.669 12.7348 24.666 12.7114C24.6602 12.6908 24.6602 12.6703 24.6602 12.6527C24.6602 12.638 24.6602 12.6263 24.6602 12.6116C24.6602 12.5705 24.6602 12.5295 24.6602 12.4943C24.666 12.4239 24.6836 12.3711 24.7042 12.33C24.757 12.239 24.9095 12.1246 25.1941 12.0337C25.241 12.286 25.2938 12.5412 25.3437 12.7935C25.3877 12.9989 25.4317 13.2042 25.4786 13.4125C25.5197 13.5826 25.5578 13.7557 25.6018 13.9259C25.6371 14.0755 25.6752 14.2251 25.7133 14.3777C25.7691 14.6035 25.8307 14.8265 25.8923 15.0495V15.0465Z" fill="#6DADC2"/>
<path d="M56.4401 24.8802V24.8861C56.4401 25.4229 56.1174 25.8864 55.6568 26.0918C55.4896 26.1681 55.3077 26.2091 55.1112 26.2091C54.9498 26.2091 54.7914 26.1798 54.6476 26.127C54.3249 26.0067 54.0609 25.7661 53.9113 25.4552C53.8292 25.2821 53.7822 25.0855 53.7822 24.8831C53.7822 24.1644 54.3543 23.5747 55.0701 23.5571C55.0848 23.5571 55.0965 23.5571 55.1112 23.5571C55.8182 23.5571 56.399 24.1145 56.4372 24.8098C56.443 24.8362 56.443 24.8597 56.443 24.8861L56.4401 24.8802Z" fill="#6DADC2"/>
<path d="M44.3333 27.535C44.3333 28.2713 43.7407 28.8639 43.0043 28.8639C42.9779 28.8639 42.9486 28.8639 42.9222 28.861H42.9193C42.2269 28.817 41.6754 28.2449 41.6754 27.535C41.6754 27.3326 41.7194 27.1477 41.8016 26.9776C42.0099 26.5258 42.4704 26.209 43.0043 26.209C43.7407 26.209 44.3333 26.8045 44.3333 27.5379V27.535Z" fill="#6DADC2"/>
<path d="M54.4219 11.8782C54.4219 12.0895 54.372 12.2919 54.284 12.4679C54.0669 12.905 53.6151 13.2042 53.093 13.2042C52.3596 13.2042 51.767 12.6087 51.767 11.8782C51.767 11.1478 52.3625 10.5493 53.093 10.5493C53.1106 10.5493 53.1252 10.5493 53.1428 10.5493C53.8557 10.5728 54.4219 11.1566 54.4219 11.8753V11.8782Z" fill="#6DADC2"/>
</svg>
