<svg width="42" height="42" viewBox="0 0 42 42" fill="none" xmlns="http://www.w3.org/2000/svg">
<path d="M21 12.25C21.4142 12.25 21.75 12.5858 21.75 13C21.75 13.4142 21.4142 13.75 21 13.75C16.9959 13.75 13.75 16.9959 13.75 21C13.75 25.0041 16.9959 28.25 21 28.25C21.4142 28.25 21.75 28.5858 21.75 29C21.75 29.4142 21.4142 29.75 21 29.75C16.1675 29.75 12.25 25.8325 12.25 21C12.25 16.1675 16.1675 12.25 21 12.25Z" fill="#F4F6F6"/>
<path d="M25.4697 18.5303C25.1768 18.2374 25.1768 17.7626 25.4697 17.4697C25.7626 17.1768 26.2374 17.1768 26.5303 17.4697L29.5303 20.4697C29.8232 20.7626 29.8232 21.2374 29.5303 21.5303L26.5303 24.5303C26.2374 24.8232 25.7626 24.8232 25.4697 24.5303C25.1768 24.2374 25.1768 23.7626 25.4697 23.4697L27.1893 21.75H19C18.5858 21.75 18.25 21.4142 18.25 21C18.25 20.5858 18.5858 20.25 19 20.25H27.1893L25.4697 18.5303Z" fill="#F4F6F6"/>
<circle cx="21" cy="21" r="20.5" stroke="#276478"/>
</svg>
