<svg width="20" height="22" viewBox="0 0 20 22" fill="none" xmlns="http://www.w3.org/2000/svg">
<path fill-rule="evenodd" clip-rule="evenodd" d="M10.9999 0.25C8.37658 0.25 6.24993 2.37665 6.24993 5C6.24993 7.62335 8.37658 9.75 10.9999 9.75C13.6233 9.75 15.7499 7.62335 15.7499 5C15.7499 2.37665 13.6233 0.25 10.9999 0.25ZM7.74993 5C7.74993 3.20507 9.20501 1.75 10.9999 1.75C12.7949 1.75 14.2499 3.20507 14.2499 5C14.2499 6.79493 12.7949 8.25 10.9999 8.25C9.20501 8.25 7.74993 6.79493 7.74993 5Z" fill="white" fill-opacity="0.6"/>
<path fill-rule="evenodd" clip-rule="evenodd" d="M1.72754 4.8181C1.62708 4.41625 1.21988 4.17193 0.818032 4.27239C0.416185 4.37285 0.171865 4.78006 0.272326 5.1819L0.654293 6.70977C1.35905 9.52881 3.49579 11.7496 6.24993 12.5787L6.24993 17.052C6.2499 17.9505 6.24988 18.6997 6.32984 19.2945C6.41425 19.9223 6.59992 20.4891 7.05539 20.9445C7.51086 21.4 8.07766 21.5857 8.70545 21.6701C9.30024 21.7501 10.0495 21.75 10.9479 21.75H11.0519C11.9504 21.75 12.6996 21.7501 13.2944 21.6701C13.9222 21.5857 14.489 21.4 14.9445 20.9445C15.3999 20.4891 15.5856 19.9223 15.67 19.2945C15.75 18.6997 15.75 17.9505 15.7499 17.052L15.7499 12.859C16.7311 13.1515 17.4805 14.0039 17.6056 15.0671L18.2551 20.5876C18.3035 20.999 18.6762 21.2933 19.0876 21.2449C19.4989 21.1965 19.7932 20.8237 19.7448 20.4124L19.0953 14.8918C18.851 12.8151 17.091 11.25 14.9999 11.25H7.08446C4.64101 10.6764 2.71932 8.78523 2.10951 6.34596L1.72754 4.8181ZM7.74993 17V12.75H14.2499V17C14.2499 17.964 14.2483 18.6116 14.1834 19.0946C14.1214 19.5561 14.0141 19.7536 13.8838 19.8839C13.7535 20.0142 13.556 20.1214 13.0945 20.1835C12.6115 20.2484 11.9639 20.25 10.9999 20.25C10.0359 20.25 9.38836 20.2484 8.90532 20.1835C8.44386 20.1214 8.24637 20.0142 8.11605 19.8839C7.98573 19.7536 7.87851 19.5561 7.81647 19.0946C7.75153 18.6116 7.74993 17.964 7.74993 17Z" fill="white" fill-opacity="0.6"/>
</svg>
